<?xml version="1.0" encoding="UTF-8" standalone="no"?>
<!-- Created with Inkscape (http://www.inkscape.org/) -->

<svg
   width="512"
   height="512"
   viewBox="0 0 135.46667 135.46666"
   version="1.1"
   id="svg5"
   inkscape:version="1.2.2 (732a01da63, 2022-12-09)"
   sodipodi:docname="icon.svg"
   inkscape:export-filename="icon.png"
   inkscape:export-xdpi="96"
   inkscape:export-ydpi="96"
   xmlns:inkscape="http://www.inkscape.org/namespaces/inkscape"
   xmlns:sodipodi="http://sodipodi.sourceforge.net/DTD/sodipodi-0.dtd"
   xmlns="http://www.w3.org/2000/svg"
   xmlns:svg="http://www.w3.org/2000/svg">
  <sodipodi:namedview
     id="namedview7"
     pagecolor="#ffffff"
     bordercolor="#000000"
     borderopacity="0.25"
     inkscape:showpageshadow="2"
     inkscape:pageopacity="0.0"
     inkscape:pagecheckerboard="0"
     inkscape:deskcolor="#d1d1d1"
     inkscape:document-units="mm"
     showgrid="false"
     inkscape:zoom="1.1893044"
     inkscape:cx="109.72801"
     inkscape:cy="270.7465"
     inkscape:window-width="2560"
     inkscape:window-height="1520"
     inkscape:window-x="-11"
     inkscape:window-y="35"
     inkscape:window-maximized="1"
     inkscape:current-layer="g953" />
  <defs
     id="defs2" />
  <g
     inkscape:label="图层 1 复制"
     inkscape:groupmode="layer"
     id="g953"
     transform="translate(0,0.01966367)">
    <path
       id="text945"
       style="font-style:normal;font-variant:normal;font-weight:normal;font-stretch:normal;font-size:41.2073px;font-family:'Century Gothic';-inkscape-font-specification:'Century Gothic';fill:#dcdcdc;stroke-width:0.333086"
       d="m 46.664062,27.128906 c -2.212453,1.488281 -4.425795,2.975239 -6.638671,4.462891 0.694943,0.852644 1.39472,1.70136 2.083984,2.558594 -5.258464,0 -10.516927,0 -15.775391,0 0,4.486979 0,8.973958 0,13.460937 1.931641,0 3.863282,0 5.794922,0 0,0.684245 0,1.36849 0,2.052734 4.317709,10e-7 8.635417,0 12.953125,0 -0.422459,0.377272 -1.201515,0.525061 -1.390233,1.051692 -0.171288,0.354322 0.163446,0.993567 -0.08281,1.18073 -6.268099,0 -12.536198,0 -18.804296,0 0,2.757162 -10e-7,5.514323 0,8.271485 6.290364,0 12.580729,0 18.871093,0 -0.01152,1.333172 0.08575,2.672255 -0.07422,4 -1.977538,-0.03283 -4.064662,-0.269226 -6.083616,-0.525722 -0.866653,-0.108662 -1.733208,-0.218105 -2.599977,-0.325841 0.448652,3.097753 0.900672,6.16893 1.248047,9.279297 3.776834,-0.169144 7.61606,0.505626 11.342641,-0.333214 2.867494,-0.878332 4.828217,-3.835321 4.714111,-6.804033 0.127607,-1.766596 0.02081,-3.538966 0.03309,-5.308065 5.24392,0.04411 10.488295,0.0025 15.732422,0.01758 -0.324979,0.476488 -0.650173,0.952829 -0.974609,1.429687 1.697026,0.847488 3.395958,1.691156 5.09375,2.53711 -2.026445,0.734313 -4.124066,1.243267 -6.222656,1.722656 -0.965928,0.892201 -0.722974,2.394269 -0.02082,3.365371 0.770001,1.587826 1.539661,3.175818 2.309886,4.763535 4.520344,-1.215893 9.056252,-2.665045 13.019531,-5.21875 2.033968,1.135189 4.149164,2.165519 6.101818,3.421608 0.637178,0.79119 1.275743,1.581265 1.911854,2.373314 3.332518,-2.164804 6.539831,-4.56666 9.28711,-7.451172 2.600429,2.856802 5.767459,5.12239 9.023439,7.169922 1.64801,-2.673824 3.44775,-5.188617 5.25195,-7.757812 -3.34334,-1.67981 -6.57956,-3.744027 -9.00586,-6.636719 2.52319,-4.92193 3.74207,-10.39683 4.37695,-15.857422 0.93425,0 1.86849,0 2.80274,0 0,-2.676432 0,-5.352865 0,-8.029297 -3.80664,0 -7.61328,0 -11.419922,0 0.633382,-2.256928 1.109472,-4.553018 1.646482,-6.833984 -2.866733,-0.426401 -5.732887,-0.856704 -8.599608,-1.283204 -0.237477,1.374702 -0.448972,2.754524 -0.730468,4.121094 -1.697154,-1.123216 -3.395314,-2.244912 -5.091797,-3.36914 -0.866396,1.201386 -1.722129,2.41056 -2.605469,3.599609 0,-1.212891 0,-2.425781 0,-3.638672 -2.757161,0 -5.514323,0 -8.271484,0 0,1.239583 0,2.479167 0,3.71875 -0.904984,-1.149291 -1.820949,-2.289828 -2.732422,-3.435547 -2.200241,1.504665 -4.400721,3.008985 -6.59961,4.515625 0.612834,0.614653 0.586493,0.910317 -0.335546,0.755262 -4.381009,-0.0037 -8.762212,0.02816 -13.142969,-0.03456 -1.817514,-2.564035 -3.922967,-4.903681 -6.013672,-7.24414 -0.127604,0.08594 -0.255208,0.171875 -0.382813,0.257812 z m 21.917969,9.001953 c 0.358122,0.494767 0.727992,0.981333 1.080078,1.480469 -0.620186,-0.0044 -1.461929,0.21271 -1.173828,-0.7 0.06225,-0.134647 -0.126396,-1.142087 0.09375,-0.780469 z m 21.783203,1.455079 c -0.02022,0.0061 0.01961,-0.02526 0,0 z m -7.824218,5.720703 c 0.544407,0.28049 -0.483798,0.873855 -0.566407,0.375 0.0074,-0.289791 0.298871,-0.474318 0.566407,-0.375 z m 16.974609,1.480468 c -0.230875,1.678247 -0.532727,3.349254 -0.962891,4.988282 -0.515995,-1.827073 -0.895634,-3.805753 -1.132812,-5.734375 0.734831,-0.04746 1.464587,0.05847 2.195312,-0.0332 -0.0332,0.259766 -0.06641,0.519532 -0.09961,0.779297 z m -29.664063,0.771485 c -0.450614,0.287806 -0.902527,0.574189 -1.363281,0.845703 -0.233513,-0.848748 0.266323,-0.964146 1,-0.845703 0.121094,0 0.242188,0 0.363281,0 z m -3.458984,2.052734 c -0.679015,0.36918 -1.357563,0.739219 -2.037109,1.107422 0.765884,1.063401 1.53811,2.121279 2.296875,3.189453 -3.226998,-0.03957 -6.458702,-0.0019 -9.6875,-0.01172 1.593969,-1.023094 3.186177,-2.048946 4.78125,-3.070312 0.137843,-0.393601 0.08422,-0.810546 0.03906,-1.214844 1.535808,0 3.071615,0 4.607422,0 z m 10.433594,1.421875 c 0.682833,0.366692 -0.57461,0.580274 -0.112373,0.05127 0.02655,-0.03079 0.07179,-0.05033 0.112373,-0.05127 z m 12.542969,2.486328 c 0.594022,0.249288 0.0058,1.153716 -0.414063,0.628907 0.14833,-0.161056 0.211809,-0.605167 0.414063,-0.628907 z m 1.654297,2.167969 c 0.626416,2.087496 1.412088,4.131794 2.408203,6.072266 -1.146296,1.379711 -2.427935,2.646733 -3.810547,3.789062 -0.606998,-0.278921 -1.214203,-0.55739 -1.822266,-0.833984 1.348219,-1.817622 2.554677,-3.84991 2.984375,-6.09961 0.0079,-0.92462 -0.01573,-1.868717 0.01172,-2.78125 0.08269,-0.02626 0.180794,-0.119789 0.228516,-0.146484 z m -21.175782,5.005859 c 0.358396,0.665271 -0.907598,0.968727 -0.789866,0.185521 -0.142466,-0.554839 0.533312,-0.154615 0.789866,-0.185521 z" />
    <path
       id="text949"
       style="font-style:normal;font-variant:normal;font-weight:normal;font-stretch:normal;font-size:23.1791px;font-family:'Century Gothic';-inkscape-font-specification:'Century Gothic';fill:#dcdcdc;stroke-width:0.333086"
       d="m 93.365234,78.65625 c -1.815989,1.221322 -3.632376,2.442056 -5.449218,3.662109 0.822071,0.698125 -0.07802,0.547017 -0.682032,0.542969 -0.958203,0 -1.916406,0 -2.874609,0 -0.860008,-1.173503 -2.470589,-0.692666 -3.701953,-0.769531 -4.135807,0 -8.271615,0 -12.407422,0 0,0.579427 0,1.158854 0,1.738281 -2.906173,-2.916168 -8.167741,-2.844162 -10.983724,0.165083 -0.313867,0.198978 -0.853957,-0.03108 -1.256816,0.114428 -1.091035,-0.05757 -2.196065,-0.01015 -3.292663,-0.0256 0,-1.45638 0,-2.91276 0,-4.36914 -2.382813,0 -4.765625,0 -7.148438,0 0,1.45638 0,2.91276 0,4.36914 -0.472562,-0.149573 -1.574413,0.330143 -1.566406,-0.3 0,-1.349218 0,-2.698437 0,-4.047656 -2.382812,0 -4.765625,0 -7.148437,0 0,1.449219 0,2.898438 0,4.347656 -1.644532,0 -3.289063,0 -4.933594,0 0,2.33724 0,4.67448 0,7.011719 1.644531,0 3.289062,0 4.933594,0 0.160572,0.778931 -0.08308,1.15364 -0.9,0.955078 -1.646615,0 -3.29323,0 -4.939844,0 0,2.337891 0,4.675781 0,7.013672 1.11263,0 2.22526,0 3.33789,0 -1.567512,0.924578 -3.173669,1.780597 -4.78125,2.632817 1.534272,1.93205 3.080882,3.85606 4.498047,5.87695 3.626546,-2.03046 7.158326,-4.23578 10.517579,-6.68555 3.446818,2.12529 6.768472,4.4488 9.992187,6.89844 1.215197,-1.48782 2.407833,-3.10458 3.636719,-4.51172 3.006226,1.81779 7.119181,1.54764 9.921875,-0.54492 0.345503,-0.18269 0.860932,0.28245 1.242187,0.41797 1.429567,0.74472 2.869199,1.4728 4.302735,2.21094 2.065731,-3.96653 4.135741,-7.930826 6.203125,-11.896489 0,2.115885 0,4.23177 0,6.347656 1.863281,0 3.726562,0 5.589843,0 0.34038,2.363733 0.648623,4.696263 0.958985,7.066403 2.911498,-0.38697 6.042589,0.61527 8.78125,-0.78711 2.122341,-1.25862 2.738768,-3.98848 2.392578,-6.283199 1.692051,0.0042 3.556078,0.0049 5.312108,0.0039 0.48076,0.108635 1.23678,-0.281951 1.42813,0.332033 0.47715,0.70445 1.31263,1.20185 2.17968,1.1289 0,1.89779 0,3.79558 0,5.69336 2.36003,0 4.72006,0 7.08008,0 -3e-5,-2.43359 -0.005,-4.86719 0.004,-7.300778 0.6045,1.009408 1.38526,1.978968 1.7018,3.116838 0.20972,1.35309 0.41247,2.70724 0.61851,4.0609 2.81925,-0.37005 5.85611,0.62097 8.50254,-0.74672 1.99152,-1.18915 2.56327,-3.73188 2.32559,-5.89469 0,-1.216536 0,-2.433072 0,-3.649609 1.29752,0 2.59505,0 3.89257,0 0,-2.307291 0,-4.614583 0,-6.921875 -1.15429,0 -2.30859,0 -3.46289,0 0.21288,-0.330294 0.39178,-0.705536 0.36328,-1.113281 1.02605,0 2.05209,0 3.07813,0 0,-2.285156 0,-4.570312 0,-6.855469 -1.97396,0 -3.94792,0 -5.92188,0 0.31305,-0.769572 0.62568,-1.539319 0.93946,-2.308594 -2.56706,10e-7 -5.13412,10e-7 -7.70117,0 -0.31173,0.769946 -0.60076,1.549203 -0.92383,2.314454 -0.67447,-0.0066 -1.34893,-0.01567 -2.02344,-0.0098 0.31317,-0.76822 0.62644,-1.536404 0.93945,-2.304688 -2.5638,10e-7 -5.1276,0 -7.6914,0 -0.49028,1.279161 -0.99252,2.558399 -1.65625,3.759766 -0.58713,-0.514868 -1.46348,-0.131135 -2.1793,-0.248047 -2.29702,-0.0033 -4.594148,0.01102 -6.891016,-0.02148 -1.1683,-1.554497 -2.485147,-2.988933 -3.773437,-4.443359 -0.127604,0.08594 -0.255208,0.171874 -0.382813,0.257812 z m -30.513672,9.921875 c 0.164104,-0.138023 0.646871,0.09373 0.351563,0.251953 -0.170894,0.24725 -1.18609,-0.05908 -0.654297,-0.214844 0.100968,-0.01443 0.200086,-0.03839 0.302734,-0.03711 z m 11.667969,0.378906 c -1.170573,2.25 -2.341146,4.5 -3.511719,6.75 -0.176141,-1.350123 -0.726487,-2.657275 -1.615234,-3.693359 0.558338,-0.918541 0.862102,-1.983962 0.900391,-3.056641 1.408854,0 2.817708,0 4.226562,0 z m 45.591799,0.669922 c 0.80567,0.442577 -0.90417,-0.08071 0,0 z m -5.26172,0.648438 c 0.84987,0.341487 -0.73219,0.663671 -0.22839,0.07574 0.0543,-0.05977 0.14896,-0.08983 0.22839,-0.07574 z m -58.94336,1.060547 c 0.206959,0.386647 0.615932,0.901062 -0.13922,0.720818 -1.016227,-0.02411 -2.033597,6.4e-4 -3.050233,-0.006 -0.160572,-0.778931 0.08308,-1.15364 0.9,-0.955078 0.728648,6.82e-4 1.457292,-0.0025 2.185937,-0.0039 0.03451,0.08138 0.06901,0.16276 0.103516,0.244141 z M 45.568359,91.095703 c 0.160572,0.778931 -0.08308,1.15364 -0.9,0.955078 -0.768416,0.406777 -0.902842,-0.81803 -0.466406,-0.955078 0.455469,0 0.910938,0 1.366406,0 z m 35.175782,1.123047 c -0.264093,0.850291 0.740223,0.432173 1.229297,0.529297 0.716493,0.03125 1.517737,-0.06167 2.182812,0.04492 -0.390221,0.12078 -1.146476,0.01523 -1.674609,0.05078 -0.757552,0 -1.515105,0 -2.272657,0 0.180672,-0.203875 0.64294,-1.591754 0.535157,-0.625 z m 24.652339,0.529297 c -0.26088,0.238952 -0.76259,-0.07948 -1.12336,0.07803 -0.26881,-0.0058 -1.55464,0.134297 -1.15554,-0.0799 0.75963,6.24e-4 1.51927,0.0012 2.2789,0.0019 z m -42.339839,2.996094 c 0.850751,-0.07512 1.520527,1.324016 0.540389,1.667621 -0.701442,0.411945 -2.162131,0.215741 -2.073592,-0.8102 0.190104,-0.612334 0.933274,-0.931765 1.533203,-0.857421 z m 57.201169,4.111328 c 0.6201,0.517971 -0.1743,1.175161 -0.43562,0.275151 -0.30582,-0.238813 0.27167,-0.375275 0.43562,-0.275151 z" />
    <path
       id="path951"
       style="fill:#dcdcdc;stroke-width:1.82208"
       d="M 25.652344,78.388672 C 20.275074,83.776577 14.831086,89.107095 9.5605469,94.595703 7.8704,97.454137 6.1543135,100.30845 4.6445312,103.26367 c -0.4245596,1.3789 0.7286058,2.5201 1.6660157,3.34571 1.0298923,1.0287 2.0602811,2.0569 3.0898437,3.08593 3.3807024,-2.04467 6.9630204,-3.77654 10.1941784,-6.05271 5.30906,-5.228395 10.564755,-10.508093 15.831212,-15.779319 0,-1.615885 0,-3.231771 0,-4.847656 -1.591463,-1.59472 -3.184572,-3.187838 -4.779297,-4.779297 -1.613281,0 -3.226562,0 -4.839843,0 -0.05143,0.05078 -0.102865,0.101563 -0.154297,0.152344 z" />
  </g>
  <g
     inkscape:label="图层 1"
     inkscape:groupmode="layer"
     id="layer1"
     transform="translate(0,0.01966367)">
    <text
       xml:space="preserve"
       style="font-style:normal;font-variant:normal;font-weight:normal;font-stretch:normal;font-size:41.2073px;font-family:'Century Gothic';-inkscape-font-specification:'Century Gothic';fill:#000000;stroke-width:0.333086"
       x="26.647146"
       y="65.025558"
       id="text1253"><tspan
         sodipodi:role="line"
         id="tspan1251"
         style="font-style:normal;font-variant:normal;font-weight:normal;font-stretch:normal;font-size:41.2073px;font-family:'Century Gothic';-inkscape-font-specification:'Century Gothic';fill:#000000;stroke-width:0.333086"
         x="26.647146"
         y="65.025558">字数</tspan></text>
    <text
       xml:space="preserve"
       style="font-style:normal;font-variant:normal;font-weight:normal;font-stretch:normal;font-size:23.1791px;font-family:'Century Gothic';-inkscape-font-specification:'Century Gothic';fill:#9400d3;stroke-width:0.333086"
       x="33.207523"
       y="101.38632"
       id="text1253-5"><tspan
         sodipodi:role="line"
         id="tspan1251-3"
         style="font-style:normal;font-variant:normal;font-weight:normal;font-stretch:normal;font-size:23.1791px;font-family:'Century Gothic';-inkscape-font-specification:'Century Gothic';fill:#9400d3;stroke-width:0.333086"
         x="33.207523"
         y="101.38632">共87字符</tspan></text>
    <path
       d="m 29.552982,80.883699 h -2.660225 l -15.032142,15.032161 -0.291304,0.40081 -4.300131,7.50701 2.569184,2.56914 7.507016,-4.30012 0.4008,-0.29151 15.032141,-15.032188 v -2.660184 z m -19.7148936,22.939981 2.7514056,-5.46624 2.641907,2.64201 z m 6.9785386,-3.75348 -3.225133,-3.22506 14.576661,-14.576642 3.225133,3.225119 z"
       fill="#c5c5c5"
       id="path1536"
       style="fill:#4b0082;stroke-width:1.82208" />
  </g>
</svg>
