<?xml version="1.0" encoding="UTF-8" standalone="no"?>
<!-- Created with Inkscape (http://www.inkscape.org/) -->

<svg
   width="512"
   height="512"
   viewBox="0 0 135.46667 135.46666"
   version="1.1"
   id="svg5"
   inkscape:version="1.2.2 (732a01da63, 2022-12-09)"
   sodipodi:docname="icon.svg"
   inkscape:export-filename="icon.png"
   inkscape:export-xdpi="96"
   inkscape:export-ydpi="96"
   xmlns:inkscape="http://www.inkscape.org/namespaces/inkscape"
   xmlns:sodipodi="http://sodipodi.sourceforge.net/DTD/sodipodi-0.dtd"
   xmlns="http://www.w3.org/2000/svg"
   xmlns:svg="http://www.w3.org/2000/svg">
  <sodipodi:namedview
     id="namedview7"
     pagecolor="#ffffff"
     bordercolor="#000000"
     borderopacity="0.25"
     inkscape:showpageshadow="2"
     inkscape:pageopacity="0.0"
     inkscape:pagecheckerboard="0"
     inkscape:deskcolor="#d1d1d1"
     inkscape:document-units="mm"
     showgrid="false"
     inkscape:zoom="0.5946522"
     inkscape:cx="44.563864"
     inkscape:cy="282.51808"
     inkscape:window-width="2560"
     inkscape:window-height="1520"
     inkscape:window-x="-11"
     inkscape:window-y="35"
     inkscape:window-maximized="1"
     inkscape:current-layer="svg5" />
  <defs
     id="defs2" />
  <g
     inkscape:label="图层 1 复制"
     inkscape:groupmode="layer"
     id="g953"
     transform="translate(0,0.01966367)">
    <path
       id="text949"
       style="font-style:normal;font-variant:normal;font-weight:normal;font-stretch:normal;font-size:23.1791px;font-family:'Century Gothic';-inkscape-font-specification:'Century Gothic';fill:#dcdcdc;stroke-width:0.333086"
       d="m 93.142765,84.440443 c -1.815989,1.221322 -3.632376,2.442056 -5.449218,3.662109 0.822071,0.698125 -0.07802,0.547017 -0.682032,0.542969 -0.958203,0 -1.916406,0 -2.874609,0 -0.860008,-1.173503 -2.470589,-0.692666 -3.701953,-0.769531 -4.135807,0 -8.271615,0 -12.407422,0 0,0.579427 0,1.158854 0,1.738281 -2.906173,-2.916168 -8.167741,-2.844162 -10.983724,0.165083 -0.313867,0.198978 -0.853957,-0.03108 -1.256816,0.114428 -1.091035,-0.05757 -2.196065,-0.01015 -3.292663,-0.0256 0,-1.45638 0,-2.91276 0,-4.36914 -2.382813,0 -4.765625,0 -7.148438,0 0,1.45638 0,2.91276 0,4.36914 -0.472562,-0.149573 -1.574413,0.330143 -1.566406,-0.3 0,-1.349218 0,-2.698437 0,-4.047656 -2.382812,0 -4.765625,0 -7.148437,0 0,1.449219 0,2.898438 0,4.347656 -1.644532,0 -3.289063,0 -4.933594,0 0,2.33724 0,4.67448 0,7.011719 1.644531,0 3.289062,0 4.933594,0 0.160572,0.778931 -0.08308,1.15364 -0.9,0.955078 -1.646615,0 -3.29323,0 -4.939844,0 0,2.337891 0,4.675781 0,7.013671 1.11263,0 2.22526,0 3.33789,0 -1.567512,0.92458 -3.173669,1.7806 -4.78125,2.63282 1.534272,1.93205 3.080882,3.85606 4.498047,5.87695 3.626546,-2.03046 7.158326,-4.23578 10.517579,-6.68555 3.446818,2.12529 6.768472,4.4488 9.992187,6.89844 1.215197,-1.48782 2.407833,-3.10458 3.636719,-4.51172 3.006226,1.81779 7.119181,1.54764 9.921875,-0.54492 0.345503,-0.18269 0.860932,0.28245 1.242187,0.41797 1.429567,0.74472 2.869199,1.4728 4.302735,2.21094 2.065731,-3.96653 4.135741,-7.93083 6.203125,-11.896491 0,2.115881 0,4.231771 0,6.347661 1.863281,0 3.726562,0 5.589843,0 0.34038,2.36373 0.648623,4.69626 0.958985,7.0664 2.911498,-0.38697 6.042589,0.61527 8.78125,-0.78711 2.122341,-1.25862 2.738768,-3.98848 2.392578,-6.2832 1.692051,0.004 3.556077,0.005 5.312107,0.004 0.48076,0.10863 1.23678,-0.28195 1.42813,0.33203 0.47715,0.70445 1.31263,1.20185 2.17968,1.1289 0,1.89779 0,3.79558 0,5.69336 2.36003,0 4.72006,0 7.08008,0 -3e-5,-2.43359 -0.005,-4.86719 0.004,-7.30078 0.6045,1.00941 1.38526,1.97897 1.7018,3.11684 0.20972,1.35309 0.41247,2.70724 0.61851,4.0609 2.81925,-0.37005 5.85611,0.62097 8.50254,-0.74672 1.99152,-1.18915 2.56327,-3.73188 2.32559,-5.89469 0,-1.21653 0,-2.43307 0,-3.64961 1.29752,0 2.59505,0 3.89257,0 0,-2.30729 0,-4.61458 0,-6.921872 -1.15429,0 -2.30859,0 -3.46289,0 0.21288,-0.330294 0.39178,-0.705536 0.36328,-1.113281 1.02605,0 2.05209,0 3.07813,0 0,-2.285156 0,-4.570312 0,-6.855469 -1.97396,0 -3.94792,0 -5.92188,0 0.31305,-0.769572 0.62568,-1.539319 0.93946,-2.308594 -2.56706,10e-7 -5.13412,10e-7 -7.70117,0 -0.31173,0.769946 -0.60076,1.549203 -0.92383,2.314454 -0.67447,-0.0066 -1.34893,-0.01567 -2.02344,-0.0098 0.31317,-0.76822 0.62644,-1.536404 0.93945,-2.304688 -2.5638,10e-7 -5.1276,0 -7.6914,0 -0.49028,1.279161 -0.99252,2.558399 -1.65625,3.759766 -0.58713,-0.514868 -1.46348,-0.131135 -2.1793,-0.248047 -2.29702,-0.0033 -4.594147,0.01102 -6.891015,-0.02148 -1.1683,-1.554497 -2.485147,-2.988933 -3.773437,-4.443359 -0.127604,0.08594 -0.255208,0.171874 -0.382813,0.257812 z m -30.513672,9.921875 c 0.164104,-0.138023 0.646871,0.09373 0.351563,0.251953 -0.170894,0.24725 -1.18609,-0.05908 -0.654297,-0.214844 0.100968,-0.01443 0.200086,-0.03839 0.302734,-0.03711 z m 11.667969,0.378906 c -1.170573,2.25 -2.341146,4.5 -3.511719,6.749996 -0.176141,-1.35012 -0.726487,-2.657271 -1.615234,-3.693355 0.558338,-0.918541 0.862102,-1.983962 0.900391,-3.056641 1.408854,0 2.817708,0 4.226562,0 z m 45.591798,0.669922 c 0.80567,0.442577 -0.90417,-0.08071 0,0 z m -5.26172,0.648438 c 0.84987,0.341487 -0.73219,0.663671 -0.22839,0.07574 0.0543,-0.05977 0.14896,-0.08983 0.22839,-0.07574 z m -58.943359,1.060547 c 0.206959,0.386647 0.615932,0.901062 -0.13922,0.720818 -1.016227,-0.02411 -2.033597,6.4e-4 -3.050233,-0.006 -0.160572,-0.778931 0.08308,-1.15364 0.9,-0.955078 0.728648,6.82e-4 1.457292,-0.0025 2.185937,-0.0039 0.03451,0.08138 0.06901,0.16276 0.103516,0.244141 z M 45.34589,96.879896 c 0.160572,0.778931 -0.08308,1.15364 -0.9,0.955078 -0.768416,0.406777 -0.902842,-0.81803 -0.466406,-0.955078 0.455469,0 0.910938,0 1.366406,0 z m 35.175782,1.123047 c -0.264093,0.850291 0.740223,0.432173 1.229297,0.529297 0.716493,0.03125 1.517737,-0.06167 2.182812,0.04492 -0.390221,0.12078 -1.146476,0.01523 -1.674609,0.05078 -0.757552,0 -1.515105,0 -2.272657,0 0.180672,-0.203875 0.64294,-1.591754 0.535157,-0.625 z m 24.652338,0.529297 c -0.26088,0.238952 -0.76259,-0.07948 -1.12336,0.07803 -0.26881,-0.0058 -1.55464,0.134297 -1.15554,-0.0799 0.75963,6.24e-4 1.51927,0.0012 2.2789,0.0019 z m -42.339838,2.99609 c 0.850751,-0.0751 1.520527,1.32402 0.540389,1.66763 -0.701442,0.41194 -2.162131,0.21574 -2.073592,-0.8102 0.190104,-0.61234 0.933274,-0.93177 1.533203,-0.85743 z m 57.201168,4.11133 c 0.6201,0.51797 -0.1743,1.17516 -0.43562,0.27515 -0.30582,-0.23881 0.27167,-0.37527 0.43562,-0.27515 z" />
    <path
       id="path951"
       style="fill:#dcdcdc;stroke-width:1.82208"
       d="M 25.429875,84.172865 C 20.052605,89.56077 14.608617,94.891288 9.3380779,100.3799 c -1.6901469,2.85843 -3.4062334,5.71274 -4.9160157,8.66796 -0.4245596,1.3789 0.7286058,2.5201 1.6660157,3.34571 1.0298923,1.0287 2.0602811,2.0569 3.0898437,3.08593 3.3807024,-2.04467 6.9630204,-3.77654 10.1941784,-6.05271 5.30906,-5.22839 10.564755,-10.50809 15.831212,-15.779316 0,-1.615885 0,-3.231771 0,-4.847656 -1.591463,-1.59472 -3.184572,-3.187838 -4.779297,-4.779297 -1.613281,0 -3.226562,0 -4.839843,0 -0.05143,0.05078 -0.102865,0.101563 -0.154297,0.152344 z" />
    <path
       id="text1080"
       style="font-style:normal;font-variant:normal;font-weight:normal;font-stretch:normal;font-size:56.4444px;font-family:'Century Gothic';-inkscape-font-specification:'Century Gothic';fill:#dcdcdc;stroke-width:0.333086"
       d="m 40.546875,20.519531 c -2.826395,1.90136 -5.653151,3.802188 -8.478516,5.705078 1.043379,1.284192 2.090832,2.56504 3.128907,3.853516 -7.366537,0 -14.733073,0 -22.09961,0 0,5.847005 0,11.69401 0,17.541016 2.645834,0 5.291667,0 7.9375,0 0,0.9375 0,1.875 0,2.8125 6.282552,0 12.565104,0 18.847656,0 -1.009313,0.633145 -2.01689,1.269068 -3.027343,1.90039 0,0.684896 0,1.369792 0,2.054688 -8.617188,0 -17.234375,0 -25.851563,0 0,3.477213 0,6.954427 0,10.43164 8.615886,0 17.231771,0 25.847656,0 -0.02566,2.124223 0.127312,4.351984 -0.138671,6.34375 -0.925534,0.04889 -1.862157,-0.02975 -2.793272,-0.03726 -2.059781,-0.0986 -4.105699,-0.540162 -6.16028,-0.568252 -1.899528,0.329209 -2.726447,2.63507 -2.150438,4.31764 0.374653,2.308182 0.635818,4.632242 0.893052,6.955842 4.8239,-0.139174 9.695827,0.545199 14.48235,-0.272083 3.598941,-0.869123 6.415214,-4.23091 6.600467,-7.937328 0.345911,-2.92181 -4.93e-4,-5.924651 0.159371,-8.817933 7.602383,0.03729 15.208637,0.0046 22.8125,0.01563 -0.50651,0.748048 -1.013068,1.496062 -1.519532,2.244141 2.486357,1.234318 4.972652,2.468759 7.458985,3.703125 -3.577975,1.382324 -7.330311,2.218205 -11.0625,3.0625 1.581918,3.275593 3.161734,6.551557 4.761718,9.818359 6.135931,-1.583563 12.232291,-3.667236 17.587891,-7.123046 2.861757,1.518504 5.680756,3.114148 8.513672,4.685546 0.858028,1.032243 1.680501,2.097558 2.505859,3.158204 4.626406,-2.887973 8.989246,-6.245944 12.701176,-10.257813 3.48719,3.931297 7.72867,7.120714 12.21679,9.822266 2.11898,-3.344002 4.36919,-6.602464 6.70703,-9.796875 -4.5968,-2.280508 -8.95025,-5.193068 -12.25195,-9.189454 3.57244,-6.886742 5.25025,-14.574881 6.14258,-22.230468 1.25846,0 2.51693,0 3.77539,0 0,-3.367188 0,-6.734375 0,-10.101563 -5.25326,0 -10.50651,0 -15.75977,0 0.86273,-3.118931 1.54858,-6.283507 2.27149,-9.4375 -3.62445,-0.539696 -7.24847,-1.082259 -10.87305,-1.621093 -0.31896,1.964363 -0.63736,3.929771 -1.05078,5.876953 -2.38919,-1.580922 -4.779465,-3.160221 -7.167968,-4.742188 -1.358498,1.896186 -2.712649,3.796176 -4.13086,5.648438 10e-7,-1.955079 0,-3.910157 0,-5.865235 -3.476562,0 -6.953124,0 -10.429687,0 0,1.970703 0,3.941406 0,5.91211 -1.416543,-1.800212 -2.868178,-3.574573 -4.302734,-5.361328 -2.764931,1.890734 -5.527888,3.784364 -8.291016,5.677734 0.256224,0.431339 0.94118,1.079903 0.927344,1.376953 -6.752474,0 -13.504948,0 -20.257422,0 -2.396546,-3.511425 -5.253606,-6.669457 -8.101563,-9.814453 -0.126953,0.08529 -0.253906,0.170573 -0.380859,0.255859 z m 30.554687,11.861328 c 0.592256,0.809654 1.188846,1.61655 1.765626,2.4375 -0.975261,0 -1.950521,0 -2.925782,0 0,-1.332031 0,-2.664062 0,-3.996093 0.386719,0.519531 0.773438,1.039062 1.160156,1.558593 z m 30.300778,0.179688 c -0.23803,0.760295 -0.46092,1.526275 -0.74414,2.271484 -0.33912,-0.115753 -1.357104,0.153749 -1.161375,-0.171515 0.686905,-0.833882 1.362195,-1.677626 2.026615,-2.529657 -0.0404,0.14323 -0.0807,0.286459 -0.1211,0.429688 z m -19.341793,3.318359 c -0.340663,0.0269 -0.144961,-0.253616 0,0 z m 29.572263,6.835938 c 0.63021,0 1.26042,0 1.89063,0 -0.38054,3.360226 -0.96224,6.661526 -1.93946,9.947265 -1.01998,-3.233569 -1.68581,-6.5728 -2.07226,-9.939453 0.70703,-0.0026 1.41406,-0.0052 2.12109,-0.0078 z m -15.171872,1.560547 c -0.238982,0.03833 -0.04273,0.0472 0,0 z m -22.712891,0.533203 c -1.239828,0.843202 -2.510174,1.64149 -3.806641,2.394531 0,-0.798177 0,-1.596354 0,-2.394531 1.26888,0 2.537761,0 3.806641,0 z m -4.523438,2.810547 c -1.27744,0.732796 -2.576032,1.427023 -3.878906,2.113281 1.016395,1.384685 2.053872,2.754075 3.048828,4.154297 -0.596831,0.199312 -1.107498,0.629688 -1.759765,0.480469 -4.525868,0.0456 -9.057756,0.0065 -13.585938,0.01953 2.580739,-1.652328 5.161398,-3.304782 7.742188,-4.957031 0,-0.603516 0,-1.207032 0,-1.810547 2.811198,0 5.622395,0 8.433593,0 z m 13.029297,2.332031 c 0.422953,0.583926 -0.705466,1.022057 -0.669922,0.289062 0.159475,-0.230318 0.380733,-0.417909 0.669922,-0.289062 z m 9.882813,3.828125 c -0.601373,0.319849 -1.01633,-0.380582 -0.680542,-0.594375 0.226847,0.198125 0.453695,0.39625 0.680542,0.594375 z M 101.75195,56.5 c 0.87508,2.845469 1.96366,5.629615 3.33985,8.271484 -1.70354,2.073775 -3.62907,3.961579 -5.697269,5.669922 -1.077429,-0.506583 -2.154228,-1.013314 -3.236328,-1.509765 1.937809,-2.491411 3.592961,-5.298959 4.320317,-8.392579 0,-1.610026 0,-3.220052 0,-4.830078 0.34573,0.01434 0.6721,-0.145529 0.93945,-0.353515 0.11133,0.38151 0.22265,0.763021 0.33398,1.144531 z m -14.681638,7.265625 c 0.201023,0.0062 -0.515346,0.961727 -0.805906,0.583952 -0.335512,-0.209933 -1.823912,-0.673051 -0.756595,-0.574908 0.520843,0.0025 1.041669,-0.0066 1.562501,-0.009 z" />
  </g>
  <g
     inkscape:label="图层 1"
     inkscape:groupmode="layer"
     id="layer1"
     transform="translate(0,0.01966367)">
    <text
       xml:space="preserve"
       style="font-style:normal;font-variant:normal;font-weight:normal;font-stretch:normal;font-size:56.4444px;font-family:'Century Gothic';-inkscape-font-specification:'Century Gothic';fill:#000000;stroke-width:0.333086"
       x="13.076538"
       y="71.922096"
       id="text1253"><tspan
         sodipodi:role="line"
         id="tspan1251"
         style="font-style:normal;font-variant:normal;font-weight:normal;font-stretch:normal;font-size:56.4444px;font-family:'Century Gothic';-inkscape-font-specification:'Century Gothic';fill:#000000;stroke-width:0.333086"
         x="13.076538"
         y="71.922096">字数</tspan></text>
    <text
       xml:space="preserve"
       style="font-style:normal;font-variant:normal;font-weight:normal;font-stretch:normal;font-size:23.1791px;font-family:'Century Gothic';-inkscape-font-specification:'Century Gothic';fill:#4b0082;stroke-width:0.333086"
       x="32.985054"
       y="107.17052"
       id="text1253-5"><tspan
         sodipodi:role="line"
         id="tspan1251-3"
         style="font-style:normal;font-variant:normal;font-weight:normal;font-stretch:normal;font-size:23.1791px;font-family:'Century Gothic';-inkscape-font-specification:'Century Gothic';fill:#4b0082;stroke-width:0.333086"
         x="32.985054"
         y="107.17052">共87字符</tspan></text>
    <path
       d="m 29.330513,86.667892 h -2.660225 l -15.032142,15.032158 -0.291304,0.40081 -4.300131,7.50701 2.569184,2.56914 7.507016,-4.30012 0.4008,-0.29151 15.032141,-15.032185 v -2.660184 z m -19.7148936,22.939978 2.7514056,-5.46624 2.641907,2.64201 z m 6.9785386,-3.75348 -3.225133,-3.22506 14.576661,-14.576639 3.225133,3.225119 z"
       fill="#c5c5c5"
       id="path1536"
       style="fill:#9932cc;stroke-width:1.82208" />
  </g>
</svg>
